<?xml version="1.0" encoding="iso-8859-1"?>
<!-- Uploaded to: SVG Repo, www.svgrepo.com, Generator: SVG Repo Mixer Tools -->
<svg fill="#000000" height="800px" width="800px" version="1.1" id="Layer_1" xmlns="http://www.w3.org/2000/svg" xmlns:xlink="http://www.w3.org/1999/xlink" 
	 viewBox="0 0 512 512" xml:space="preserve">
<g>
	<g>
		<path d="M256,0C114.842,0,0,114.842,0,256s114.842,256,256,256s256-114.842,256-256S397.158,0,256,0z M256,462.452
			c-113.837,0-206.452-92.614-206.452-206.452S142.163,49.548,256,49.548S462.452,142.163,462.452,256S369.837,462.452,256,462.452z
			"/>
	</g>
</g>
<g>
	<g>
		<circle cx="132.129" cy="165.161" r="24.774"/>
	</g>
</g>
<g>
	<g>
		<circle cx="132.129" cy="346.839" r="24.774"/>
	</g>
</g>
<g>
	<g>
		<circle cx="396.387" cy="247.742" r="24.774"/>
	</g>
</g>
<g>
	<g>
		<circle cx="231.226" cy="132.129" r="41.29"/>
	</g>
</g>
<g>
	<g>
		<path d="M313.806,272.516c-41.046,0-74.323,33.275-74.323,74.323c0,41.046,33.277,74.323,74.323,74.323
			c41.048,0,74.323-33.277,74.323-74.323C388.129,305.791,354.854,272.516,313.806,272.516z M313.806,371.613
			c-13.661,0-24.774-11.114-24.774-24.774c0-13.66,11.114-24.774,24.774-24.774c13.66,0,24.774,11.114,24.774,24.774
			C338.581,360.499,327.467,371.613,313.806,371.613z"/>
	</g>
</g>
</svg>