<svg width="350" height="50" viewBox="0 0 350 50" fill="none" xmlns="http://www.w3.org/2000/svg">
<rect x="0.5" y="0.5" width="349" height="49" rx="24.5" fill="white" stroke="black"/>
<path d="M71 25.2339C71 30.9395 67.0287 35 61.1639 35C55.541 35 51 30.5323 51 25C51 19.4677 55.541 15 61.1639 15C63.9016 15 66.2049 15.9879 67.9795 17.6169L65.2131 20.2339C61.5943 16.7984 54.8648 19.379 54.8648 25C54.8648 28.4879 57.6967 31.3145 61.1639 31.3145C65.1885 31.3145 66.6967 28.4758 66.9344 27.004H61.1639V23.5645H70.8402C70.9344 24.0766 71 24.5685 71 25.2339Z" fill="black"/>
<path d="M100.076 22.3622H97.4201C97.3443 21.9266 97.2047 21.5407 97.0011 21.2045C96.7975 20.8636 96.5442 20.5748 96.2411 20.3381C95.9381 20.1013 95.5924 19.9238 95.2042 19.8054C94.8207 19.6823 94.4064 19.6207 93.9613 19.6207C93.1706 19.6207 92.4698 19.8196 91.859 20.2173C91.2482 20.6103 90.77 21.188 90.4244 21.9503C90.0787 22.7079 89.9059 23.6335 89.9059 24.7273C89.9059 25.84 90.0787 26.7775 90.4244 27.5398C90.7747 28.2973 91.253 28.8703 91.859 29.2585C92.4698 29.642 93.1682 29.8338 93.9542 29.8338C94.3898 29.8338 94.797 29.777 95.1758 29.6634C95.5593 29.545 95.9026 29.3722 96.2056 29.1449C96.5134 28.9176 96.7714 28.6383 96.9798 28.3068C97.1928 27.9754 97.3396 27.5966 97.4201 27.1705L100.076 27.1847C99.9769 27.8759 99.7615 28.5246 99.43 29.1307C99.1033 29.7367 98.6748 30.2718 98.1445 30.7358C97.6142 31.1951 96.994 31.5549 96.2837 31.8153C95.5735 32.071 94.7852 32.1989 93.9187 32.1989C92.6403 32.1989 91.4992 31.9029 90.4954 31.3111C89.4916 30.7192 88.7009 29.8646 88.1232 28.7472C87.5456 27.6297 87.2567 26.2898 87.2567 24.7273C87.2567 23.16 87.5479 21.8201 88.1303 20.7074C88.7127 19.59 89.5058 18.7353 90.5096 18.1435C91.5134 17.5516 92.6497 17.2557 93.9187 17.2557C94.7283 17.2557 95.4812 17.3693 96.1772 17.5966C96.8732 17.8239 97.4935 18.1577 98.038 18.598C98.5825 19.0336 99.0299 19.5687 99.3803 20.2031C99.7354 20.8329 99.9674 21.5526 100.076 22.3622ZM107.134 32.2131C106.069 32.2131 105.146 31.9787 104.364 31.5099C103.583 31.0412 102.977 30.3854 102.546 29.5426C102.12 28.6998 101.907 27.715 101.907 26.5881C101.907 25.4612 102.12 24.474 102.546 23.6264C102.977 22.7789 103.583 22.1207 104.364 21.652C105.146 21.1832 106.069 20.9489 107.134 20.9489C108.2 20.9489 109.123 21.1832 109.904 21.652C110.685 22.1207 111.289 22.7789 111.715 23.6264C112.146 24.474 112.362 25.4612 112.362 26.5881C112.362 27.715 112.146 28.6998 111.715 29.5426C111.289 30.3854 110.685 31.0412 109.904 31.5099C109.123 31.9787 108.2 32.2131 107.134 32.2131ZM107.148 30.1534C107.726 30.1534 108.209 29.9948 108.597 29.6776C108.986 29.3556 109.274 28.9247 109.464 28.3849C109.658 27.8452 109.755 27.2438 109.755 26.581C109.755 25.9134 109.658 25.3097 109.464 24.7699C109.274 24.2254 108.986 23.7921 108.597 23.4702C108.209 23.1482 107.726 22.9872 107.148 22.9872C106.557 22.9872 106.064 23.1482 105.671 23.4702C105.283 23.7921 104.992 24.2254 104.798 24.7699C104.608 25.3097 104.513 25.9134 104.513 26.581C104.513 27.2438 104.608 27.8452 104.798 28.3849C104.992 28.9247 105.283 29.3556 105.671 29.6776C106.064 29.9948 106.557 30.1534 107.148 30.1534ZM117.115 25.608V32H114.544V21.0909H117.001V22.9446H117.129C117.38 22.3338 117.78 21.8485 118.329 21.4886C118.883 21.1288 119.567 20.9489 120.382 20.9489C121.135 20.9489 121.79 21.1098 122.349 21.4318C122.913 21.7538 123.348 22.2202 123.656 22.831C123.968 23.4418 124.122 24.1828 124.118 25.054V32H121.547V25.4517C121.547 24.7225 121.357 24.152 120.978 23.7401C120.604 23.3281 120.086 23.1222 119.423 23.1222C118.973 23.1222 118.573 23.2216 118.223 23.4205C117.877 23.6146 117.605 23.8963 117.406 24.2656C117.212 24.6349 117.115 25.0824 117.115 25.608ZM132.179 21.0909V23.0795H125.907V21.0909H132.179ZM127.456 18.4773H130.027V28.7188C130.027 29.0644 130.079 29.3295 130.183 29.5142C130.292 29.6941 130.434 29.8172 130.609 29.8835C130.784 29.9498 130.978 29.983 131.191 29.983C131.352 29.983 131.499 29.9711 131.632 29.9474C131.769 29.9238 131.873 29.9025 131.944 29.8835L132.377 31.8935C132.24 31.9408 132.044 31.9929 131.788 32.0497C131.537 32.1065 131.229 32.1397 130.865 32.1491C130.221 32.1681 129.641 32.071 129.125 31.858C128.609 31.6402 128.199 31.304 127.896 30.8494C127.598 30.3949 127.451 29.8267 127.456 29.1449V18.4773ZM134.329 32V21.0909H136.9V32H134.329ZM135.621 19.5426C135.214 19.5426 134.864 19.4077 134.57 19.1378C134.277 18.8632 134.13 18.5341 134.13 18.1506C134.13 17.7623 134.277 17.4332 134.57 17.1634C134.864 16.8887 135.214 16.7514 135.621 16.7514C136.033 16.7514 136.384 16.8887 136.673 17.1634C136.966 17.4332 137.113 17.7623 137.113 18.1506C137.113 18.5341 136.966 18.8632 136.673 19.1378C136.384 19.4077 136.033 19.5426 135.621 19.5426ZM142.115 25.608V32H139.544V21.0909H142.001V22.9446H142.129C142.38 22.3338 142.78 21.8485 143.329 21.4886C143.883 21.1288 144.567 20.9489 145.382 20.9489C146.135 20.9489 146.79 21.1098 147.349 21.4318C147.913 21.7538 148.348 22.2202 148.656 22.831C148.968 23.4418 149.122 24.1828 149.118 25.054V32H146.547V25.4517C146.547 24.7225 146.357 24.152 145.978 23.7401C145.604 23.3281 145.086 23.1222 144.423 23.1222C143.973 23.1222 143.573 23.2216 143.223 23.4205C142.877 23.6146 142.605 23.8963 142.406 24.2656C142.212 24.6349 142.115 25.0824 142.115 25.608ZM158.684 27.4119V21.0909H161.255V32H158.762V30.0611H158.649C158.403 30.6719 157.998 31.1714 157.434 31.5597C156.876 31.9479 156.187 32.142 155.368 32.142C154.653 32.142 154.02 31.9834 153.471 31.6662C152.927 31.3442 152.501 30.8778 152.193 30.267C151.885 29.6515 151.731 28.9081 151.731 28.0369V21.0909H154.302V27.6392C154.302 28.3305 154.492 28.8797 154.87 29.2869C155.249 29.6941 155.746 29.8977 156.362 29.8977C156.741 29.8977 157.108 29.8054 157.463 29.6207C157.818 29.4361 158.109 29.1615 158.336 28.7969C158.568 28.4276 158.684 27.9659 158.684 27.4119ZM168.729 32.2131C167.635 32.2131 166.69 31.9858 165.895 31.5312C165.104 31.072 164.496 30.4233 164.07 29.5852C163.643 28.7424 163.43 27.7505 163.43 26.6094C163.43 25.4872 163.643 24.5024 164.07 23.6548C164.5 22.8026 165.102 22.1397 165.874 21.6662C166.645 21.188 167.552 20.9489 168.594 20.9489C169.266 20.9489 169.901 21.0578 170.497 21.2756C171.098 21.4886 171.629 21.8201 172.088 22.2699C172.552 22.7197 172.917 23.2926 173.182 23.9886C173.447 24.6799 173.58 25.5038 173.58 26.4602V27.2486H164.638V25.5156H171.115C171.11 25.0232 171.004 24.5852 170.795 24.2017C170.587 23.8134 170.296 23.508 169.922 23.2855C169.553 23.063 169.122 22.9517 168.629 22.9517C168.104 22.9517 167.642 23.0795 167.244 23.3352C166.847 23.5862 166.536 23.9176 166.314 24.3295C166.096 24.7367 165.985 25.1842 165.98 25.6719V27.1847C165.98 27.8191 166.096 28.3636 166.328 28.8182C166.56 29.268 166.884 29.6136 167.301 29.8551C167.718 30.0919 168.205 30.2102 168.764 30.2102C169.138 30.2102 169.477 30.1581 169.78 30.054C170.083 29.9451 170.346 29.7865 170.568 29.5781C170.791 29.3698 170.959 29.1117 171.072 28.804L173.473 29.0739C173.321 29.7083 173.033 30.2623 172.607 30.7358C172.185 31.2045 171.645 31.5691 170.987 31.8295C170.329 32.0852 169.576 32.2131 168.729 32.2131ZM183.89 32L179.785 17.4545H182.619L185.24 28.1435H185.375L188.173 17.4545H190.751L193.556 28.1506H193.684L196.305 17.4545H199.139L195.034 32H192.434L189.522 21.794H189.409L186.49 32H183.89ZM200.852 32V21.0909H203.423V32H200.852ZM202.145 19.5426C201.738 19.5426 201.387 19.4077 201.094 19.1378C200.8 18.8632 200.653 18.5341 200.653 18.1506C200.653 17.7623 200.8 17.4332 201.094 17.1634C201.387 16.8887 201.738 16.7514 202.145 16.7514C202.557 16.7514 202.907 16.8887 203.196 17.1634C203.49 17.4332 203.636 17.7623 203.636 18.1506C203.636 18.5341 203.49 18.8632 203.196 19.1378C202.907 19.4077 202.557 19.5426 202.145 19.5426ZM211.515 21.0909V23.0795H205.243V21.0909H211.515ZM206.792 18.4773H209.363V28.7188C209.363 29.0644 209.415 29.3295 209.519 29.5142C209.628 29.6941 209.77 29.8172 209.945 29.8835C210.12 29.9498 210.314 29.983 210.527 29.983C210.688 29.983 210.835 29.9711 210.968 29.9474C211.105 29.9238 211.209 29.9025 211.28 29.8835L211.713 31.8935C211.576 31.9408 211.38 31.9929 211.124 32.0497C210.873 32.1065 210.565 32.1397 210.201 32.1491C209.557 32.1681 208.977 32.071 208.461 31.858C207.944 31.6402 207.535 31.304 207.232 30.8494C206.934 30.3949 206.787 29.8267 206.792 29.1449V18.4773ZM216.47 25.608V32H213.899V17.4545H216.413V22.9446H216.541C216.797 22.3291 217.192 21.8437 217.727 21.4886C218.267 21.1288 218.954 20.9489 219.787 20.9489C220.545 20.9489 221.205 21.1075 221.768 21.4247C222.332 21.742 222.768 22.206 223.075 22.8168C223.388 23.4276 223.544 24.1733 223.544 25.054V32H220.973V25.4517C220.973 24.7178 220.784 24.1473 220.405 23.7401C220.031 23.3281 219.505 23.1222 218.828 23.1222C218.374 23.1222 217.966 23.2216 217.607 23.4205C217.251 23.6146 216.972 23.8963 216.768 24.2656C216.57 24.6349 216.47 25.0824 216.47 25.608ZM240.984 22.0994C240.865 21.7159 240.702 21.3726 240.494 21.0696C240.29 20.7618 240.044 20.4991 239.755 20.2812C239.471 20.0634 239.144 19.9001 238.775 19.7912C238.406 19.6776 238.003 19.6207 237.567 19.6207C236.786 19.6207 236.09 19.8172 235.479 20.2102C234.869 20.6032 234.388 21.1809 234.038 21.9432C233.692 22.7008 233.519 23.6241 233.519 24.7131C233.519 25.8116 233.692 26.742 234.038 27.5043C234.383 28.2666 234.864 28.8466 235.479 29.2443C236.095 29.6373 236.81 29.8338 237.624 29.8338C238.363 29.8338 239.002 29.6918 239.542 29.4077C240.086 29.1236 240.505 28.7211 240.799 28.2003C241.093 27.6747 241.239 27.0592 241.239 26.3537L241.836 26.446H237.887V24.3864H243.789V26.1335C243.789 27.3788 243.524 28.456 242.994 29.3651C242.463 30.2741 241.734 30.9749 240.806 31.4673C239.878 31.955 238.813 32.1989 237.61 32.1989C236.27 32.1989 235.094 31.8982 234.08 31.2969C233.072 30.6908 232.283 29.8314 231.715 28.7188C231.152 27.6013 230.87 26.2756 230.87 24.7415C230.87 23.5672 231.036 22.5185 231.367 21.5952C231.703 20.6719 232.172 19.8883 232.773 19.2443C233.375 18.5956 234.08 18.1032 234.89 17.767C235.7 17.4261 236.58 17.2557 237.532 17.2557C238.337 17.2557 239.087 17.3741 239.783 17.6108C240.479 17.8428 241.097 18.1742 241.637 18.6051C242.182 19.036 242.629 19.5473 242.979 20.1392C243.33 20.7311 243.559 21.3845 243.668 22.0994H240.984ZM250.982 32.2131C249.917 32.2131 248.993 31.9787 248.212 31.5099C247.431 31.0412 246.825 30.3854 246.394 29.5426C245.968 28.6998 245.755 27.715 245.755 26.5881C245.755 25.4612 245.968 24.474 246.394 23.6264C246.825 22.7789 247.431 22.1207 248.212 21.652C248.993 21.1832 249.917 20.9489 250.982 20.9489C252.047 20.9489 252.971 21.1832 253.752 21.652C254.533 22.1207 255.137 22.7789 255.563 23.6264C255.994 24.474 256.209 25.4612 256.209 26.5881C256.209 27.715 255.994 28.6998 255.563 29.5426C255.137 30.3854 254.533 31.0412 253.752 31.5099C252.971 31.9787 252.047 32.2131 250.982 32.2131ZM250.996 30.1534C251.574 30.1534 252.057 29.9948 252.445 29.6776C252.833 29.3556 253.122 28.9247 253.311 28.3849C253.506 27.8452 253.603 27.2438 253.603 26.581C253.603 25.9134 253.506 25.3097 253.311 24.7699C253.122 24.2254 252.833 23.7921 252.445 23.4702C252.057 23.1482 251.574 22.9872 250.996 22.9872C250.404 22.9872 249.912 23.1482 249.519 23.4702C249.131 23.7921 248.839 24.2254 248.645 24.7699C248.456 25.3097 248.361 25.9134 248.361 26.581C248.361 27.2438 248.456 27.8452 248.645 28.3849C248.839 28.9247 249.131 29.3556 249.519 29.6776C249.912 29.9948 250.404 30.1534 250.996 30.1534ZM263.15 32.2131C262.085 32.2131 261.161 31.9787 260.38 31.5099C259.599 31.0412 258.993 30.3854 258.562 29.5426C258.136 28.6998 257.923 27.715 257.923 26.5881C257.923 25.4612 258.136 24.474 258.562 23.6264C258.993 22.7789 259.599 22.1207 260.38 21.652C261.161 21.1832 262.085 20.9489 263.15 20.9489C264.215 20.9489 265.138 21.1832 265.92 21.652C266.701 22.1207 267.305 22.7789 267.731 23.6264C268.162 24.474 268.377 25.4612 268.377 26.5881C268.377 27.715 268.162 28.6998 267.731 29.5426C267.305 30.3854 266.701 31.0412 265.92 31.5099C265.138 31.9787 264.215 32.2131 263.15 32.2131ZM263.164 30.1534C263.742 30.1534 264.225 29.9948 264.613 29.6776C265.001 29.3556 265.29 28.9247 265.479 28.3849C265.674 27.8452 265.771 27.2438 265.771 26.581C265.771 25.9134 265.674 25.3097 265.479 24.7699C265.29 24.2254 265.001 23.7921 264.613 23.4702C264.225 23.1482 263.742 22.9872 263.164 22.9872C262.572 22.9872 262.08 23.1482 261.687 23.4702C261.299 23.7921 261.007 24.2254 260.813 24.7699C260.624 25.3097 260.529 25.9134 260.529 26.581C260.529 27.2438 260.624 27.8452 260.813 28.3849C261.007 28.9247 261.299 29.3556 261.687 29.6776C262.08 29.9948 262.572 30.1534 263.164 30.1534ZM275.304 36.3182C274.38 36.3182 273.587 36.1927 272.924 35.9418C272.261 35.6955 271.729 35.3641 271.326 34.9474C270.924 34.5308 270.645 34.0691 270.488 33.5625L272.804 33.0014C272.908 33.2145 273.059 33.4252 273.258 33.6335C273.457 33.8466 273.725 34.0218 274.061 34.1591C274.402 34.3011 274.83 34.3722 275.346 34.3722C276.075 34.3722 276.679 34.1946 277.157 33.8395C277.636 33.4891 277.875 32.9115 277.875 32.1065V30.0398H277.747C277.614 30.3049 277.42 30.5772 277.164 30.8565C276.913 31.1359 276.58 31.3703 276.163 31.5597C275.751 31.7491 275.233 31.8438 274.608 31.8438C273.77 31.8438 273.01 31.6473 272.328 31.2543C271.651 30.8565 271.111 30.2647 270.708 29.4787C270.311 28.688 270.112 27.6984 270.112 26.5099C270.112 25.312 270.311 24.3011 270.708 23.4773C271.111 22.6487 271.653 22.0213 272.335 21.5952C273.017 21.1643 273.777 20.9489 274.615 20.9489C275.254 20.9489 275.779 21.0578 276.191 21.2756C276.608 21.4886 276.94 21.7467 277.186 22.0497C277.432 22.348 277.619 22.6297 277.747 22.8949H277.889V21.0909H280.424V32.1776C280.424 33.1103 280.202 33.8821 279.757 34.4929C279.312 35.1037 278.703 35.5606 277.931 35.8636C277.16 36.1667 276.284 36.3182 275.304 36.3182ZM275.325 29.8267C275.869 29.8267 276.333 29.6941 276.717 29.429C277.1 29.1638 277.392 28.7827 277.591 28.2855C277.789 27.7884 277.889 27.1918 277.889 26.4957C277.889 25.8092 277.789 25.2079 277.591 24.6918C277.396 24.1757 277.108 23.7756 276.724 23.4915C276.345 23.2027 275.879 23.0582 275.325 23.0582C274.752 23.0582 274.274 23.2074 273.89 23.5057C273.507 23.804 273.218 24.2135 273.024 24.7344C272.83 25.2505 272.733 25.8376 272.733 26.4957C272.733 27.1634 272.83 27.7481 273.024 28.25C273.223 28.7472 273.514 29.1354 273.897 29.4148C274.286 29.6894 274.761 29.8267 275.325 29.8267ZM285.63 17.4545V32H283.059V17.4545H285.63ZM293.104 32.2131C292.01 32.2131 291.065 31.9858 290.27 31.5312C289.479 31.072 288.871 30.4233 288.445 29.5852C288.018 28.7424 287.805 27.7505 287.805 26.6094C287.805 25.4872 288.018 24.5024 288.445 23.6548C288.875 22.8026 289.477 22.1397 290.249 21.6662C291.02 21.188 291.927 20.9489 292.969 20.9489C293.641 20.9489 294.276 21.0578 294.872 21.2756C295.473 21.4886 296.004 21.8201 296.463 22.2699C296.927 22.7197 297.292 23.2926 297.557 23.9886C297.822 24.6799 297.955 25.5038 297.955 26.4602V27.2486H289.013V25.5156H295.49C295.485 25.0232 295.379 24.5852 295.17 24.2017C294.962 23.8134 294.671 23.508 294.297 23.2855C293.928 23.063 293.497 22.9517 293.004 22.9517C292.479 22.9517 292.017 23.0795 291.619 23.3352C291.222 23.5862 290.911 23.9176 290.689 24.3295C290.471 24.7367 290.36 25.1842 290.355 25.6719V27.1847C290.355 27.8191 290.471 28.3636 290.703 28.8182C290.935 29.268 291.259 29.6136 291.676 29.8551C292.093 30.0919 292.58 30.2102 293.139 30.2102C293.513 30.2102 293.852 30.1581 294.155 30.054C294.458 29.9451 294.721 29.7865 294.943 29.5781C295.166 29.3698 295.334 29.1117 295.447 28.804L297.848 29.0739C297.696 29.7083 297.408 30.2623 296.982 30.7358C296.56 31.2045 296.02 31.5691 295.362 31.8295C294.704 32.0852 293.951 32.2131 293.104 32.2131Z" fill="black"/>
</svg>
